<?xml version="1.0" encoding="UTF-8" standalone="no"?>
<!-- Created with Inkscape (http://www.inkscape.org/) -->

<svg
   width="1.9001424mm"
   height="2.7001016mm"
   viewBox="0 0 1.9001424 2.7001016"
   version="1.1"
   id="svg1"
   xml:space="preserve"
   sodipodi:docname="logos.svg"
   inkscape:version="1.3 (0e150ed6c4, 2023-07-21)"
   xmlns:inkscape="http://www.inkscape.org/namespaces/inkscape"
   xmlns:sodipodi="http://sodipodi.sourceforge.net/DTD/sodipodi-0.dtd"
   xmlns="http://www.w3.org/2000/svg"
   xmlns:svg="http://www.w3.org/2000/svg"><sodipodi:namedview
     id="namedview1"
     pagecolor="#ffffff"
     bordercolor="#000000"
     borderopacity="0.25"
     inkscape:showpageshadow="2"
     inkscape:pageopacity="0.0"
     inkscape:pagecheckerboard="0"
     inkscape:deskcolor="#d1d1d1"
     inkscape:document-units="mm"
     inkscape:zoom="2"
     inkscape:cx="258.5"
     inkscape:cy="427"
     inkscape:window-width="1920"
     inkscape:window-height="992"
     inkscape:window-x="-8"
     inkscape:window-y="-8"
     inkscape:window-maximized="1"
     inkscape:current-layer="layer1"
     showgrid="false" /><defs
     id="defs1"><inkscape:path-effect
       effect="fillet_chamfer"
       id="path-effect3"
       is_visible="true"
       lpeversion="1"
       nodesatellites_param="F,0,0,1,0,0.25,0,1 @ F,0,0,1,0,0.25,0,1 @ F,0,0,1,0,0.25,0,1 @ F,0,0,1,0,0.25,0,1 | F,0,0,1,0,0.25,0,1 @ F,0,0,1,0,0.25,0,1 @ F,0,0,1,0,0.25,0,1 @ F,0,0,1,0,0.25,0,1"
       radius="0"
       unit="px"
       method="auto"
       mode="F"
       chamfer_steps="1"
       flexible="false"
       use_knot_distance="true"
       apply_no_radius="true"
       apply_with_radius="true"
       only_selected="false"
       hide_knots="false" /></defs><g
     inkscape:label="Calque 1"
     inkscape:groupmode="layer"
     id="layer1"
     transform="translate(-76.100778,-106.86013)"><path
       id="rect2-1-3"
       style="fill:#8c8c8c;fill-opacity:1;stroke:none;stroke-width:13.8632;stroke-linecap:round;stroke-dasharray:none;stroke-opacity:1"
       d="m 76.100781,107.11014 v 2.2001 a 0.25,0.25 45 0 0 0.25,0.25 h 0.09996 a 0.25,0.25 135 0 0 0.25,-0.25 v -2.2001 a 0.25,0.25 45 0 0 -0.25,-0.25 h -0.09996 a 0.25,0.25 135 0 0 -0.25,0.25 z m 1.300179,0 v 2.2001 a 0.25,0.25 45 0 0 0.25,0.25 h 0.09996 a 0.25,0.25 135 0 0 0.25,-0.25 v -2.2001 a 0.25,0.25 45 0 0 -0.25,-0.25 h -0.09996 a 0.25,0.25 135 0 0 -0.25,0.25 z"
       inkscape:path-effect="#path-effect3"
       inkscape:original-d="m 76.100781,106.86014 v 2.7001 h 0.599964 v -2.7001 z m 1.300179,0 v 2.7001 h 0.599964 v -2.7001 z" /></g></svg>
