<?xml version="1.0" encoding="UTF-8" standalone="no"?>
<!-- Created with Inkscape (http://www.inkscape.org/) -->

<svg
   width="2.5982828mm"
   height="2.7000937mm"
   viewBox="0 0 2.5982828 2.7000937"
   version="1.1"
   id="svg1"
   xml:space="preserve"
   sodipodi:docname="logos.svg"
   xmlns:inkscape="http://www.inkscape.org/namespaces/inkscape"
   xmlns:sodipodi="http://sodipodi.sourceforge.net/DTD/sodipodi-0.dtd"
   xmlns="http://www.w3.org/2000/svg"
   xmlns:svg="http://www.w3.org/2000/svg"><sodipodi:namedview
     id="namedview1"
     pagecolor="#ffffff"
     bordercolor="#000000"
     borderopacity="0.25"
     inkscape:showpageshadow="2"
     inkscape:pageopacity="0.0"
     inkscape:pagecheckerboard="0"
     inkscape:deskcolor="#d1d1d1"
     inkscape:document-units="mm"
     inkscape:zoom="2.0056913"
     inkscape:cx="302.14021"
     inkscape:cy="327.56785"
     inkscape:window-width="1920"
     inkscape:window-height="992"
     inkscape:window-x="-8"
     inkscape:window-y="-8"
     inkscape:window-maximized="1"
     inkscape:current-layer="layer1" /><defs
     id="defs1"><inkscape:path-effect
       effect="fillet_chamfer"
       id="path-effect8-1"
       is_visible="true"
       lpeversion="1"
       nodesatellites_param="F,0,0,1,0,0.3,0,1 @ F,0,0,1,0,0.3,0,1 @ F,0,0,1,0,0.1,0,1 @ F,0,0,1,0,0.15,0,1 @ F,0,0,1,0,0.15,0,1 @ F,0,0,1,0,0,0,1 @ F,0,0,1,0,0.15,0,1 @ F,0,0,1,0,0.15,0,1 @ F,0,0,1,0,0.1,0,1"
       radius="0"
       unit="px"
       method="auto"
       mode="F"
       chamfer_steps="1"
       flexible="false"
       use_knot_distance="true"
       apply_no_radius="true"
       apply_with_radius="true"
       only_selected="false"
       hide_knots="false" /></defs><g
     inkscape:label="Calque 1"
     inkscape:groupmode="layer"
     id="layer1"
     transform="translate(-80.890245,-90.4875)"><path
       id="path2-04-8"
       style="fill:#8c8c8c;fill-opacity:1;stroke:none;stroke-width:2;stroke-linecap:round;stroke-dasharray:none;stroke-opacity:1"
       inkscape:transform-center-x="0.43300396"
       inkscape:transform-center-y="-1.2864576e-06"
       d="m 72.436868,96.022787 v 1.601265 a 0.17324359,0.17324359 30.005516 0 0 0.259836,0.15005 l 1.19311,-0.688536 a 0.05774786,0.05774786 30.005516 0 1 0.08661,0.05002 v 0.5285 a 0.15,0.15 45 0 0 0.15,0.15 l 0.06707,0 a 0.15,0.15 135 0 0 0.15,-0.15 v -0.840474 -0.840854 a 0.15,0.15 45 0 0 -0.15,-0.15 h -0.06707 a 0.15,0.15 135 0 0 -0.15,0.15 v 0.52888 a 0.05773555,0.05773555 149.99977 0 1 -0.0866,0.05 l -1.193146,-0.688851 a 0.17320666,0.17320666 149.99977 0 0 -0.259809,0.150002 z"
       transform="matrix(-1.3627696,0,0,1.3627696,182.20329,-40.110469)"
       inkscape:path-effect="#path-effect8-1"
       inkscape:original-d="m 72.436868,95.722787 v 2.201265 l 1.539558,-0.888469 v 0.7785 h 0.367067 v -0.990474 -0.990854 h -0.367067 v 0.77888 z"
       inkscape:export-filename="..\vscode\hosler-website\src\assets\next-logo.svg"
       inkscape:export-xdpi="96"
       inkscape:export-ydpi="96" /></g></svg>
